<svg xmlns="http://www.w3.org/2000/svg" viewBox="0 0 440 440"><defs><style>.cls-1{fill:#0d0e26;}.cls-2{fill:#727dbd;}</style></defs><g id="Layer_2" data-name="Layer 2"><g id="Layer_2-2" data-name="Layer 2"><path class="cls-1" d="M220,0C98.5,0,0,98.5,0,220S98.5,440,220,440s220-98.5,220-220S341.5,0,220,0Zm0,432C102.92,432,8,337.08,8,220S102.92,8,220,8s212,94.92,212,212S337.08,432,220,432Z"/><path class="cls-1" d="M230.25,348l-11.72-25,5-.82,8,18.48.61,1.94.07-2.05,1.6-19.68,5.67-.93,7.7,18.12.69,2,0-2,1.72-20.11,4.91-.8-3.11,27.45-5.09.83L238,327l-.57-1.43-.05,1.49-2,20.19Z"/><path class="cls-1" d="M272.56,337,260.2,313.46l14.12-7.41,1.75,3.34-9.49,5,8.86,16.87,10-5.25,1.75,3.33Zm.23-13.79a10,10,0,0,1-.16-1.79,4.5,4.5,0,0,1,.37-1.83,2.78,2.78,0,0,1,1.32-1.35l3.92-2.06,1.71,3.27Z"/><path class="cls-1" d="M298.27,321.32l-16.68-20.7,4-3.19,16.68,20.7Z"/><path class="cls-1" d="M322,298.13a16.22,16.22,0,0,1-4.63,4.07,13.22,13.22,0,0,1-5.14,1.73,12.85,12.85,0,0,1-5.19-.5,14.92,14.92,0,0,1-8.37-6.74,13,13,0,0,1-1.58-5,13.43,13.43,0,0,1,.58-5.44,16.4,16.4,0,0,1,2.94-5.37,21.52,21.52,0,0,1,2.53-2.57,19.26,19.26,0,0,1,3.56-2.44l1.89,3.25a19.61,19.61,0,0,0-3.08,2.11,15.91,15.91,0,0,0-2,2,8.86,8.86,0,0,0-1.78,3.51,8.41,8.41,0,0,0,0,3.6,9.65,9.65,0,0,0,1.4,3.36,12.24,12.24,0,0,0,5.81,4.69,10.07,10.07,0,0,0,3.57.66,8.1,8.1,0,0,0,3.5-.77,8.41,8.41,0,0,0,3.05-2.48c.34-.41.65-.84.94-1.27a12.2,12.2,0,0,0,.94-1.72l-6.7-5.37,2.93-3.66,8.56,6.87a19.27,19.27,0,0,1-1,2.84,26.26,26.26,0,0,1-1.37,2.65A17.11,17.11,0,0,1,322,298.13Z"/><path class="cls-1" d="M334.69,277.94,310,268l2-4.85,24.67,9.93ZM341,262.4l-11.19-4.51-3.79,9.4a10.17,10.17,0,0,1-1.3-1.26,4.71,4.71,0,0,1-.94-1.65,2.76,2.76,0,0,1,.11-1.89l2.42-6-10-4,1.92-4.78,24.67,9.93Z"/><path class="cls-1" d="M346.77,238l-22.66-2.72-.83,6.9-3.74-.45,2.28-19,3.74.45-.83,6.9,22.66,2.72Z"/><path class="cls-1" d="M348,213.56l-26.45,2.7L321,211l22.67-2.31-1-9.53,3.78-.39Z"/><path class="cls-1" d="M343.45,186,318,193.54l-1.45-4.88L342,181.1Z"/><path class="cls-1" d="M336.89,167.2l-23.53,12.39-7.43-14.11,3.34-1.75,5,9.48,20.19-10.63Zm-13.8-.21a9.1,9.1,0,0,1-1.79.16,4.41,4.41,0,0,1-1.83-.37,2.72,2.72,0,0,1-1.35-1.31l-2.06-3.91,3.27-1.73Z"/><path class="cls-1" d="M318.29,138l-17.21,15,4.57,5.24-2.84,2.48-12.54-14.4,2.84-2.47,4.56,5.24,17.21-15Z"/><path class="cls-1" d="M301.3,121.1,284.82,142l-4-3.15L297.31,118Z"/><path class="cls-1" d="M284.46,108.86l-11.38,24-4.56-2.16-2.5-21,.17-1.55-.56,1.36L258,125.74l-4.16-2,11.38-24,4.16,2L272,123.56l0,1.44.47-1.16,8-16.89Z"/><path class="cls-1" d="M236,92.51a16.59,16.59,0,0,1,5.86,1.93A13.38,13.38,0,0,1,245.91,98a12.89,12.89,0,0,1,2.2,4.73,14.38,14.38,0,0,1,.2,5.45,14.22,14.22,0,0,1-1.78,5.18,13,13,0,0,1-3.54,3.92,13.6,13.6,0,0,1-5,2.25,16.36,16.36,0,0,1-6.12.18,20.7,20.7,0,0,1-3.49-.88,19.37,19.37,0,0,1-3.91-1.82l1.84-3.28a19.32,19.32,0,0,0,3.39,1.58,16.51,16.51,0,0,0,2.71.68,9,9,0,0,0,3.94-.25,8.33,8.33,0,0,0,3.12-1.78,9.66,9.66,0,0,0,2.19-2.92,12.16,12.16,0,0,0,1.1-7.38,10,10,0,0,0-1.23-3.41,8.38,8.38,0,0,0-2.44-2.63,8.51,8.51,0,0,0-3.68-1.38c-.53-.07-1.06-.13-1.58-.16a12.32,12.32,0,0,0-2,0l-1.24,8.51L226,104,227.6,93.1a17.31,17.31,0,0,1,3-.57,28.37,28.37,0,0,1,3-.17A20.36,20.36,0,0,1,236,92.51Z"/><path class="cls-1" d="M288,220A68,68,0,0,1,222.43,288c-.81,0-1.62.05-2.43.05H184V393.41a1.85,1.85,0,0,1-.09.58,2.45,2.45,0,0,1-2.89,1.77A180.05,180.05,0,0,1,66.3,126.29a2,2,0,0,1,3.7,1.06v34.24a15.55,15.55,0,0,1-.89,5.1A160.16,160.16,0,0,0,152,364.87V256h68a36,36,0,1,0-36-36H152a68,68,0,0,1,136,0Z"/><path class="cls-2" d="M256,396.39A180.89,180.89,0,0,1,220,400h-2a1.36,1.36,0,0,0,0-.2v-3.23a17.65,17.65,0,0,1,3.5-9.52c3.46-4.41,6.69-5.82,11.21-7.31a10,10,0,0,1,2.08-.42l1.61-.17c92-9.37,160.91-96.62,139.76-194.76a157.85,157.85,0,0,0-124-121.25c-42.84-8.35-83.45.41-116.21,20.66V224h52a32,32,0,0,1,32,32H106l-.27,0a2,2,0,0,1-1.73-2V82.38h0c42.92-36.22,103-52.73,166.33-35.54a175.17,175.17,0,0,1,123.3,124.56C421.78,278.86,353.07,376.68,256,396.39Z"/></g></g></svg>