<svg width="250" height="250" viewBox="0 0 250 250" fill="none" xmlns="http://www.w3.org/2000/svg">
<path d="M125 0C55.9659 0 0 55.9659 0 125C0 194.034 55.9659 250 125 250C194.034 250 250 194.034 250 125C250 55.9659 194.034 0 125 0ZM125 245.455C58.4773 245.455 4.54545 191.523 4.54545 125C4.54545 58.4773 58.4773 4.54545 125 4.54545C191.523 4.54545 245.455 58.4773 245.455 125C245.455 191.523 191.523 245.455 125 245.455Z" fill="#EBF2FA"/>
<path d="M104.545 213.597C92.0746 210.708 80.3536 205.221 70.1484 197.493C59.9432 189.765 51.4837 179.971 45.3226 168.75C39.1614 157.529 35.4374 145.135 34.394 132.376C33.3505 119.618 35.011 106.783 39.267 94.7102C39.5959 93.7812 39.7669 92.8037 39.7727 91.8182V72.358C39.7735 72.1105 39.6935 71.8696 39.5449 71.6718C39.3963 71.4739 39.1872 71.33 38.9493 71.2619C38.7115 71.1937 38.4579 71.2051 38.227 71.2942C37.9962 71.3833 37.8008 71.5454 37.6705 71.7557C29.2027 85.6491 24.1709 101.362 22.9928 117.59C21.8148 133.817 24.5243 150.092 30.8966 165.063C37.2689 180.034 47.1201 193.268 59.6325 203.669C72.1449 214.069 86.9576 221.335 102.841 224.864C103.046 224.91 103.259 224.909 103.463 224.862C103.668 224.814 103.859 224.721 104.023 224.59C104.187 224.458 104.319 224.291 104.409 224.102C104.5 223.912 104.546 223.704 104.545 223.494V213.597Z" fill="#EBF2FA"/>
<path d="M130.824 197.727L124.165 183.523L127.006 183.057L131.551 193.557L131.898 194.659L131.938 193.489L132.847 182.313L136.068 181.784L140.443 192.08L140.835 193.216V192.08L141.813 180.653L144.602 180.199L142.835 195.795L139.943 196.267L135.227 185.795L134.903 184.983L134.875 185.83L133.739 197.295L130.824 197.727Z" fill="#EBF2FA"/>
<path d="M154.864 191.477L147.841 178.102L155.864 173.892L156.858 175.79L151.466 178.631L156.5 188.222L162.182 185.239L163.176 187.131L154.864 191.477ZM154.994 183.642C154.934 183.306 154.903 182.966 154.903 182.625C154.9 182.268 154.972 181.913 155.114 181.585C155.266 181.25 155.532 180.979 155.864 180.818L158.091 179.648L159.062 181.506L154.994 183.642Z" fill="#EBF2FA"/>
<path d="M169.472 182.568L159.994 170.807L162.267 168.994L171.744 180.756L169.472 182.568Z" fill="#EBF2FA"/>
<path d="M182.955 169.392C182.234 170.324 181.341 171.109 180.324 171.705C179.43 172.232 178.435 172.565 177.403 172.682C176.412 172.794 175.408 172.7 174.455 172.403C173.461 172.091 172.536 171.593 171.727 170.938C170.907 170.287 170.22 169.485 169.705 168.574C169.211 167.699 168.903 166.732 168.801 165.733C168.698 164.691 168.81 163.639 169.131 162.642C169.491 161.529 170.058 160.494 170.801 159.591C171.239 159.065 171.719 158.576 172.239 158.131C172.86 157.594 173.538 157.127 174.261 156.739L175.335 158.591C174.715 158.934 174.129 159.335 173.585 159.79C173.175 160.135 172.795 160.516 172.449 160.926C171.968 161.51 171.623 162.193 171.438 162.926C171.29 163.6 171.29 164.298 171.438 164.972C171.579 165.653 171.849 166.301 172.233 166.881C172.634 167.494 173.131 168.039 173.705 168.494C174.254 168.939 174.872 169.292 175.534 169.54C176.181 169.791 176.869 169.92 177.563 169.92C178.249 169.922 178.928 169.773 179.551 169.483C180.231 169.155 180.824 168.672 181.284 168.074C181.477 167.835 181.653 167.597 181.818 167.352C182.022 167.041 182.201 166.715 182.352 166.375L178.545 163.324L180.21 161.244L185.074 165.148C184.927 165.7 184.737 166.239 184.506 166.761C184.275 167.278 184.015 167.78 183.727 168.267C183.496 168.66 183.238 169.036 182.955 169.392Z" fill="#EBF2FA"/>
<path d="M190.165 157.92L176.136 152.273L177.273 149.517L191.29 155.159L190.165 157.92ZM193.75 149.091L187.392 146.528L185.239 151.869C184.972 151.653 184.724 151.414 184.5 151.153C184.26 150.88 184.078 150.561 183.966 150.216C183.859 149.862 183.882 149.481 184.028 149.142L185.403 145.733L179.722 143.46L180.812 140.744L194.83 146.386L193.75 149.091Z" fill="#EBF2FA"/>
<path d="M197.028 135.227L184.153 133.687L183.682 137.608L181.557 137.352L182.852 126.557L184.977 126.812L184.506 130.733L197.381 132.278L197.028 135.227Z" fill="#EBF2FA"/>
<path d="M197.727 121.341L182.699 122.869L182.386 119.886L195.267 118.574L194.699 113.159L196.847 112.938L197.727 121.341Z" fill="#EBF2FA"/>
<path d="M195.142 105.682L180.682 109.96L179.858 107.193L194.318 102.892L195.142 105.682Z" fill="#EBF2FA"/>
<path d="M191.415 95L178.045 102.04L173.824 94.0227L175.722 93.0284L178.562 98.4148L190.034 92.3693L191.415 95ZM183.574 94.8807C183.238 94.9417 182.898 94.9721 182.557 94.9716C182.199 94.9765 181.845 94.9048 181.517 94.7614C181.182 94.6107 180.911 94.3473 180.75 94.0171L179.58 91.7898L181.437 90.8125L183.574 94.8807Z" fill="#EBF2FA"/>
<path d="M180.847 78.4091L171.068 86.9318L173.665 89.9091L172.051 91.3182L164.926 83.1364L166.54 81.733L169.131 84.7102L178.909 76.1875L180.847 78.4091Z" fill="#EBF2FA"/>
<path d="M171.193 68.8068L161.83 80.6818L159.557 78.8921L168.92 67.0341L171.193 68.8068Z" fill="#EBF2FA"/>
<path d="M161.625 61.8523L155.159 75.4886L152.568 74.2614L151.148 62.3295L151.244 61.4489L150.926 62.2216L146.591 71.4432L144.227 70.3068L150.693 56.6705L153.057 57.8068L154.545 70.2045V71.0227L154.813 70.3636L159.358 60.767L161.625 61.8523Z" fill="#EBF2FA"/>
<path d="M134.091 52.5625C135.258 52.7157 136.386 53.0878 137.415 53.6591C138.322 54.166 139.115 54.8545 139.744 55.6818C140.34 56.4831 140.765 57.3977 140.994 58.3693C141.229 59.3848 141.268 60.4359 141.108 61.4659C140.965 62.5032 140.621 63.5028 140.097 64.4091C139.586 65.2813 138.901 66.0394 138.085 66.6364C137.235 67.2509 136.268 67.6859 135.244 67.9148C134.102 68.1674 132.922 68.2021 131.767 68.017C131.093 67.9083 130.429 67.741 129.784 67.517C129.007 67.254 128.262 66.9053 127.562 66.4773L128.608 64.6193C129.221 64.9778 129.866 65.2784 130.534 65.517C131.035 65.6901 131.55 65.8175 132.074 65.8977C132.821 66.0216 133.586 65.975 134.312 65.7614C134.97 65.5572 135.575 65.212 136.085 64.75C136.6 64.2799 137.023 63.7171 137.33 63.0909C137.972 61.7932 138.191 60.3264 137.955 58.8977C137.842 58.2147 137.605 57.5581 137.256 56.9602C136.907 56.3679 136.434 55.8581 135.869 55.4659C135.243 55.045 134.527 54.7764 133.778 54.6818C133.477 54.6364 133.176 54.608 132.881 54.5909C132.503 54.5601 132.122 54.5601 131.744 54.5909L131.04 59.4261L128.409 59.0909L129.318 52.8977C129.876 52.7398 130.446 52.6314 131.023 52.5739C131.589 52.5087 132.158 52.4765 132.727 52.4773C133.183 52.476 133.639 52.5045 134.091 52.5625Z" fill="#EBF2FA"/>
<path d="M125 86.3636C114.753 86.3636 104.926 90.4342 97.68 97.68C90.4342 104.926 86.3636 114.753 86.3636 125H104.545C104.545 120.954 105.745 117 107.993 113.636C110.24 110.272 113.435 107.651 117.172 106.102C120.91 104.554 125.023 104.149 128.99 104.938C132.958 105.728 136.603 107.676 139.464 110.536C142.324 113.397 144.272 117.042 145.062 121.01C145.851 124.977 145.446 129.09 143.898 132.828C142.349 136.565 139.728 139.76 136.364 142.007C133 144.255 129.046 145.455 125 145.455H86.3636V219.318L103.142 224.563C103.304 224.612 103.475 224.623 103.642 224.595C103.81 224.566 103.968 224.499 104.104 224.399C104.24 224.298 104.351 224.167 104.428 224.016C104.505 223.865 104.545 223.698 104.545 223.528V157.773C109.62 160.941 115.362 162.888 121.318 163.46C127.273 164.031 133.281 163.212 138.866 161.066C144.45 158.92 149.461 155.506 153.502 151.094C157.542 146.681 160.503 141.391 162.151 135.639C163.798 129.887 164.087 123.832 162.996 117.949C161.904 112.067 159.461 106.518 155.859 101.741C152.257 96.9631 147.595 93.0875 142.24 90.4191C136.885 87.7507 130.983 86.3624 125 86.3636Z" fill="#EBF2FA"/>
<path d="M59.0909 127.273H106.818C111.64 127.273 116.265 129.188 119.675 132.598C123.084 136.008 125 140.632 125 145.455H60.2273C59.9259 145.455 59.6369 145.335 59.4237 145.122C59.2106 144.909 59.0909 144.62 59.0909 144.318V127.273Z" fill="#ABCBDD"/>
<path d="M86.3636 145.455H126.136C126.438 145.455 126.727 145.574 126.94 145.787C127.153 146.001 127.273 146.29 127.273 146.591V162.5C127.273 162.801 127.153 163.09 126.94 163.304C126.727 163.517 126.438 163.636 126.136 163.636H87.5C87.1986 163.636 86.9096 163.517 86.6965 163.304C86.4834 163.09 86.3636 162.801 86.3636 162.5V145.455Z" fill="#EBF2FA"/>
<path d="M60.2273 145.455H77.2727V37.5L59.5852 47.6307C59.4411 47.7078 59.3197 47.8213 59.233 47.9598C59.1463 48.0983 59.0973 48.2571 59.0909 48.4205V144.5C59.1169 144.776 59.2507 145.032 59.4634 145.21C59.676 145.389 59.9504 145.477 60.2273 145.455Z" fill="#ABCBDD"/>
<path d="M223.659 97.3807C219.226 80.4706 210.417 65.0266 198.118 52.6026C185.82 40.1786 170.466 31.213 153.602 26.608C117.614 16.8409 83.483 26.2273 59.0909 46.8011V62.3864C79.4716 40.9375 110.227 29.4318 143.301 35.8807C160.488 39.2318 176.318 47.541 188.838 59.7833C201.358 72.0256 210.02 87.6652 213.756 104.773C225.773 160.528 186.608 210.108 134.347 215.426L133.432 215.523C133.03 215.559 132.633 215.641 132.25 215.767C129.682 216.608 127.847 217.409 125.881 219.92C124.702 221.488 124.011 223.367 123.892 225.324V227.165C123.895 227.201 123.895 227.237 123.892 227.273H125.028C131.898 227.274 138.75 226.587 145.483 225.222C200.608 214.023 239.648 158.443 223.659 97.3807Z" fill="#ABCBDD"/>
</svg>
