<svg xmlns="http://www.w3.org/2000/svg" viewBox="0 0 440 440"><defs><style>.bd67f77e-3a29-47c6-b18e-0b3c09c22510{fill:#011d27;}.b5eaee29-1352-4086-98f0-102a2a1d5dba{fill:#29657f;}</style></defs><g id="bcecadbe-986f-4d12-a662-d4d43cebdc6d" data-name="Layer 2"><g id="e328bf9b-bc2c-455a-9ff9-0693398440ce" data-name="Layer 1"><path class="bd67f77e-3a29-47c6-b18e-0b3c09c22510" d="M220,0C98.5,0,0,98.5,0,220S98.5,440,220,440s220-98.5,220-220S341.5,0,220,0Zm0,432C102.92,432,8,337.08,8,220S102.92,8,220,8s212,94.92,212,212S337.08,432,220,432Z"/><path class="bd67f77e-3a29-47c6-b18e-0b3c09c22510" d="M184,375.93A160.13,160.13,0,0,1,69.11,166.69,15.53,15.53,0,0,0,70,161.6V127.35a2,2,0,0,0-3.7-1.06A180.05,180.05,0,0,0,181,395.76a2.46,2.46,0,0,0,3-2.41Z"/><path class="bd67f77e-3a29-47c6-b18e-0b3c09c22510" d="M230.25,348l-11.72-25,5-.82,8,18.48.61,1.94.07-2.06,1.6-19.67,5.67-.93,7.7,18.12.69,2,0-2,1.72-20.11,4.91-.8-3.11,27.45-5.09.83L238,327l-.57-1.43-.05,1.49-2,20.18Z"/><path class="bd67f77e-3a29-47c6-b18e-0b3c09c22510" d="M272.56,337,260.2,313.46l14.12-7.41,1.75,3.34-9.49,5,8.86,16.88,10-5.25,1.75,3.33Zm.23-13.79a10,10,0,0,1-.16-1.79,4.5,4.5,0,0,1,.37-1.83,2.78,2.78,0,0,1,1.32-1.35l3.92-2.06,1.71,3.27Z"/><path class="bd67f77e-3a29-47c6-b18e-0b3c09c22510" d="M298.27,321.32l-16.68-20.7,4-3.19,16.68,20.7Z"/><path class="bd67f77e-3a29-47c6-b18e-0b3c09c22510" d="M322,298.13a16.22,16.22,0,0,1-4.63,4.07,13,13,0,0,1-5.14,1.72,12.67,12.67,0,0,1-5.19-.49,14.56,14.56,0,0,1-4.8-2.58,14.28,14.28,0,0,1-3.56-4.16,12.83,12.83,0,0,1-1.59-5,13.43,13.43,0,0,1,.58-5.44,16.4,16.4,0,0,1,2.94-5.37,21.52,21.52,0,0,1,2.53-2.57,19.8,19.8,0,0,1,3.56-2.45l1.89,3.26a19.61,19.61,0,0,0-3.08,2.11,16.57,16.57,0,0,0-2,2,9,9,0,0,0-1.78,3.52,8.41,8.41,0,0,0,0,3.6,9.65,9.65,0,0,0,1.4,3.36,12,12,0,0,0,2.59,2.84,11.59,11.59,0,0,0,3.22,1.84,9.86,9.86,0,0,0,3.57.67,8.25,8.25,0,0,0,3.5-.77,8.52,8.52,0,0,0,3.05-2.48c.34-.42.65-.84.94-1.27a12.2,12.2,0,0,0,.94-1.72l-6.7-5.37,2.93-3.66,8.56,6.87a19.27,19.27,0,0,1-1,2.84,26.26,26.26,0,0,1-1.37,2.65A17.11,17.11,0,0,1,322,298.13Z"/><path class="bd67f77e-3a29-47c6-b18e-0b3c09c22510" d="M334.69,277.94,310,268l2-4.85,24.67,9.93ZM341,262.4l-11.19-4.51-3.79,9.4a10.17,10.17,0,0,1-1.3-1.26,4.71,4.71,0,0,1-.94-1.65,2.76,2.76,0,0,1,.11-1.89l2.42-6-10-4,1.92-4.78,24.67,9.93Z"/><path class="bd67f77e-3a29-47c6-b18e-0b3c09c22510" d="M346.77,238l-22.66-2.71-.83,6.9-3.74-.45,2.28-19,3.74.45-.83,6.9,22.66,2.72Z"/><path class="bd67f77e-3a29-47c6-b18e-0b3c09c22510" d="M348,213.56l-26.45,2.69L321,211l22.67-2.31-1-9.53,3.78-.39Z"/><path class="bd67f77e-3a29-47c6-b18e-0b3c09c22510" d="M343.45,186,318,193.53l-1.45-4.87L342,181.09Z"/><path class="bd67f77e-3a29-47c6-b18e-0b3c09c22510" d="M336.89,167.2l-23.53,12.39-7.43-14.11,3.34-1.75,5,9.48,20.19-10.64Zm-13.8-.21a9.93,9.93,0,0,1-1.79.16,4.41,4.41,0,0,1-1.83-.37,2.76,2.76,0,0,1-1.35-1.31l-2.06-3.92,3.27-1.72Z"/><path class="bd67f77e-3a29-47c6-b18e-0b3c09c22510" d="M318.29,138l-17.21,15,4.57,5.24-2.84,2.48-12.54-14.4,2.84-2.47,4.56,5.24,17.21-15Z"/><path class="bd67f77e-3a29-47c6-b18e-0b3c09c22510" d="M301.3,121.1,284.82,142l-4-3.15,16.48-20.87Z"/><path class="bd67f77e-3a29-47c6-b18e-0b3c09c22510" d="M284.46,108.86l-11.38,24-4.56-2.16-2.5-21,.17-1.55-.56,1.36L258,125.74l-4.16-2,11.38-24,4.16,2L272,123.56l0,1.44.47-1.16,8-16.89Z"/><path class="bd67f77e-3a29-47c6-b18e-0b3c09c22510" d="M236,92.51a16.47,16.47,0,0,1,5.85,1.93,13.3,13.3,0,0,1,4.1,3.56,12.89,12.89,0,0,1,2.2,4.73,14.38,14.38,0,0,1,.2,5.45,14.22,14.22,0,0,1-1.78,5.18,13,13,0,0,1-3.54,3.92,13.6,13.6,0,0,1-5,2.25,16.36,16.36,0,0,1-6.12.18,20.7,20.7,0,0,1-3.49-.88,19.43,19.43,0,0,1-3.91-1.83l1.84-3.27a20.08,20.08,0,0,0,3.39,1.58,15.46,15.46,0,0,0,2.71.67,8.84,8.84,0,0,0,3.94-.24,8.33,8.33,0,0,0,3.12-1.78,9.78,9.78,0,0,0,2.19-2.92,12.16,12.16,0,0,0,1.1-7.38,10,10,0,0,0-1.23-3.41,8.38,8.38,0,0,0-2.44-2.63,8.51,8.51,0,0,0-3.68-1.38c-.53-.08-1.06-.13-1.58-.16a12.32,12.32,0,0,0-2,0l-1.24,8.51L226,104,227.6,93.1a17.31,17.31,0,0,1,3-.57,25.9,25.9,0,0,1,3-.17A18.46,18.46,0,0,1,236,92.51Z"/><path class="bd67f77e-3a29-47c6-b18e-0b3c09c22510" d="M220,152a68,68,0,0,0-68,68h32a36,36,0,1,1,36,36H152V386l29.53,9.23a1.91,1.91,0,0,0,2.47-1.82V277.68A68,68,0,1,0,220,152Z"/><path class="b5eaee29-1352-4086-98f0-102a2a1d5dba" d="M104,224h84a32,32,0,0,1,32,32v0a0,0,0,0,1,0,0H106a2,2,0,0,1-2-2V224A0,0,0,0,1,104,224Z"/><path class="bd67f77e-3a29-47c6-b18e-0b3c09c22510" d="M152,256h70a2,2,0,0,1,2,2v28a2,2,0,0,1-2,2H154a2,2,0,0,1-2-2V256A0,0,0,0,1,152,256Z"/><path class="b5eaee29-1352-4086-98f0-102a2a1d5dba" d="M106,256h30V66L104.87,83.83a1.65,1.65,0,0,0-.87,1.39v169.1A1.86,1.86,0,0,0,106,256Z"/><path class="b5eaee29-1352-4086-98f0-102a2a1d5dba" d="M393.64,171.39A175.17,175.17,0,0,0,270.34,46.83C207,29.64,146.93,46.16,104,82.37h0V109.8c35.87-37.75,90-58,148.21-46.65a157.84,157.84,0,0,1,124,121.25c21.15,98.13-47.78,185.39-139.76,194.75l-1.61.17a9.39,9.39,0,0,0-2.08.43c-4.52,1.48-7.75,2.89-11.21,7.31a17.59,17.59,0,0,0-3.5,9.51v3.24a1.11,1.11,0,0,1,0,.19h2a180.89,180.89,0,0,0,36-3.61C353.07,376.68,421.78,278.86,393.64,171.39Z"/></g></g></svg>